<svg width="36" height="36" viewBox="0 0 36 36" fill="none" xmlns="http://www.w3.org/2000/svg">
<path d="M12.9207 32.7464L12.9225 32.7434L20.145 21.0069L23.5045 22.8883L17.0581 35.0598L12.9207 32.7464ZM12.5695 13.112L18.9708 0.940469L23.0635 3.29821L23.0613 3.30177L15.839 15.0379L12.5695 13.112ZM24.8787 15.6739L32.3619 27.2593L28.2241 29.688H28.1943L21.5638 17.645L24.8787 15.6739ZM2.75594 20.9562L16.5055 21.3619L16.5951 25.1691L2.75594 25.7552V20.983V20.9562ZM19.4787 10.8309L33.3184 10.2448L33.3633 14.9992H33.3363H33.3361L19.4787 14.6832V10.8309ZM11.1052 20.2809L3.71216 8.65028L7.79324 6.22855L14.3748 18.3549L11.1052 20.2809Z" fill="#121212" stroke="#121212" stroke-width="0.0357346"/>
</svg>
